<svg xmlns="http://www.w3.org/2000/svg" viewBox="0 0 380 820" width="380" height="820">
<defs>
  <filter id="glow">
    <feGaussianBlur stdDeviation="2.5" result="b"/>
    <feMerge><feMergeNode in="b"/><feMergeNode in="SourceGraphic"/></feMerge>
  </filter>
  <filter id="ductglow">
    <feGaussianBlur stdDeviation="3.5" result="b"/>
    <feMerge><feMergeNode in="b"/><feMergeNode in="SourceGraphic"/></feMerge>
  </filter>
  <filter id="sg">
    <feGaussianBlur stdDeviation="1.4" result="b"/>
    <feMerge><feMergeNode in="b"/><feMergeNode in="SourceGraphic"/></feMerge>
  </filter>
  <radialGradient id="vignette" cx="50%" cy="50%" r="65%">
    <stop offset="55%" stop-color="transparent"/>
    <stop offset="100%" stop-color="rgba(6,8,20,0.6)"/>
  </radialGradient>
</defs>

<!-- Background -->
<rect width="380" height="820" fill="#0b0f22"/>

<!-- ═══ REALISTIC BODY SILHOUETTE ═══ -->
<g fill="#141c3a" stroke="rgba(201,168,76,0.45)" stroke-width="1.5" stroke-linejoin="round">

<!-- HEAD — realistic oval, slightly wider at temples -->
<path d="
  M 190,10
  C 218,10 238,24 242,48
  C 246,65 244,80 238,92
  C 232,104 222,112 210,116
  C 204,118 198,120 190,120
  C 182,120 176,118 170,116
  C 158,112 148,104 142,92
  C 136,80 134,65 138,48
  C 142,24 162,10 190,10 Z
"/>

<!-- NECK — tapers from jaw to shoulders -->
<path d="
  M 172,116 C 168,120 165,128 165,135
  L 165,152 C 168,155 178,158 190,158
  C 202,158 212,155 215,152
  L 215,135 C 215,128 212,120 208,116 Z
"/>

<!-- TORSO + HIPS — realistic human proportions -->
<path d="
  M 138,148
  C 118,152 100,160 88,172
  C 76,184 72,198 72,215
  L 72,310
  C 70,328 68,345 72,360
  C 76,375 85,385 95,390
  L 95,405
  C 90,418 86,432 86,445
  C 86,458 92,468 102,472
  L 145,478
  L 145,485
  C 148,488 158,490 168,490
  L 170,490
  L 170,485
  L 210,485
  L 210,490
  L 212,490
  C 222,490 232,488 235,485
  L 235,478
  L 278,472
  C 288,468 294,458 294,445
  C 294,432 290,418 285,405
  L 285,390
  C 295,385 304,375 308,360
  C 312,345 310,328 308,310
  L 308,215
  C 308,198 304,184 292,172
  C 280,160 262,152 242,148 Z
"/>

<!-- LEFT ARM — realistic, slightly bent at elbow -->
<path d="
  M 96,165
  C 80,165 65,172 55,185
  C 45,198 40,215 40,232
  L 35,310
  C 33,325 33,338 36,350
  C 39,358 44,364 50,366
  L 58,368
  C 66,368 72,364 76,358
  C 80,350 80,340 78,328
  L 74,255
  C 72,238 74,222 80,210
  C 86,198 95,190 105,186 Z
"/>

<!-- LEFT HAND -->
<path d="
  M 50,366
  C 44,370 38,376 35,385
  C 32,393 33,402 37,408
  C 41,414 48,416 55,414
  L 60,412
  C 65,416 70,418 75,416
  C 80,414 83,410 83,404
  C 83,398 80,392 76,388
  L 72,378
  C 70,370 66,368 58,368 Z
"/>

<!-- RIGHT ARM -->
<path d="
  M 284,165
  C 300,165 315,172 325,185
  C 335,198 340,215 340,232
  L 345,310
  C 347,325 347,338 344,350
  C 341,358 336,364 330,366
  L 322,368
  C 314,368 308,364 304,358
  C 300,350 300,340 302,328
  L 306,255
  C 308,238 306,222 300,210
  C 294,198 285,190 275,186 Z
"/>

<!-- RIGHT HAND -->
<path d="
  M 330,366
  C 336,370 342,376 345,385
  C 348,393 347,402 343,408
  C 339,414 332,416 325,414
  L 320,412
  C 315,416 310,418 305,416
  C 300,414 297,410 297,404
  C 297,398 300,392 304,388
  L 308,378
  C 310,370 314,368 322,368 Z
"/>

<!-- LEFT LEG -->
<path d="
  M 148,488
  C 140,492 130,500 122,514
  C 114,528 110,545 110,562
  L 108,648
  C 106,668 105,688 107,705
  C 109,718 114,728 122,732
  L 125,735
  C 128,740 128,752 126,762
  L 122,780
  C 120,790 122,800 130,806
  L 165,810
  C 175,812 182,808 185,800
  C 188,792 186,780 183,770
  L 180,755
  L 180,490
  C 172,488 160,486 148,488 Z
"/>

<!-- LEFT FOOT -->
<path d="
  M 122,780 C 116,785 112,792 114,800
  C 116,808 124,814 135,814
  L 168,814 C 178,814 185,810 185,802
  L 183,770 C 180,775 175,778 168,780
  L 135,780 Z
"/>

<!-- RIGHT LEG -->
<path d="
  M 232,488
  C 240,492 250,500 258,514
  C 266,528 270,545 270,562
  L 272,648
  C 274,668 275,688 273,705
  C 271,718 266,728 258,732
  L 255,735
  C 252,740 252,752 254,762
  L 258,780
  C 260,790 258,800 250,806
  L 215,810
  C 205,812 198,808 195,800
  C 192,792 194,780 197,770
  L 200,755
  L 200,490
  C 208,488 220,486 232,488 Z
"/>

<!-- RIGHT FOOT -->
<path d="
  M 258,780 C 264,785 268,792 266,800
  C 264,808 256,814 245,814
  L 212,814 C 202,814 195,810 195,802
  L 197,770 C 200,775 205,778 212,780
  L 245,780 Z
"/>

</g>

<!-- Anatomical body detail lines -->
<g fill="none" stroke="rgba(201,168,76,0.16)" stroke-width="0.9">
  <!-- Collarbone left -->
  <path d="M 138,150 Q 158,162 178,160"/>
  <!-- Collarbone right -->
  <path d="M 242,150 Q 222,162 202,160"/>
  <!-- Sternum dashes -->
  <path d="M 190,162 L 190,488" stroke-dasharray="3,7" stroke-width="0.8"/>
  <!-- Navel hint -->
  <circle cx="190" cy="338" r="5" stroke-width="0.8"/>
  <!-- Ribs -->
  <path d="M 115,188 Q 148,196 188,194"/>
  <path d="M 265,188 Q 232,196 192,194"/>
  <path d="M 108,215 Q 145,224 188,222"/>
  <path d="M 272,215 Q 235,224 192,222"/>
  <path d="M 104,242 Q 144,252 188,250"/>
  <path d="M 276,242 Q 236,252 192,250"/>
  <path d="M 100,269 Q 142,280 188,278"/>
  <path d="M 280,269 Q 238,280 192,278"/>
  <!-- Hip line -->
  <path d="M 90,392 Q 142,400 188,398"/>
  <path d="M 290,392 Q 238,400 192,398"/>
  <!-- Knee caps -->
  <path d="M 122,640 Q 140,645 158,640" stroke-width="1.1"/>
  <path d="M 222,640 Q 240,645 258,640" stroke-width="1.1"/>
</g>

<!-- ═══ ORGANS ═══ -->
<!-- Thymus (upper chest) -->
<path d="M 182,178 C 180,170 184,164 190,164 C 196,164 200,170 198,178 C 196,186 193,192 190,192 C 187,192 184,186 182,178 Z"
  fill="rgba(200,155,65,0.5)" stroke="rgba(201,168,76,0.35)" stroke-width="0.8"/>

<!-- Spleen (left side abdomen) -->
<path d="M 238,272 C 245,262 262,263 268,276 C 274,288 269,306 257,313 C 246,320 230,314 226,302 C 222,290 231,282 238,272 Z"
  fill="rgba(175,72,45,0.55)" stroke="rgba(195,98,60,0.3)" stroke-width="1"/>

<!-- Kidneys -->
<path d="M 152,288 C 145,278 140,290 142,304 C 144,316 155,322 162,314 C 169,306 160,298 152,288 Z"
  fill="rgba(172,70,42,0.4)"/>
<path d="M 228,288 C 235,278 240,290 238,304 C 236,316 225,322 218,314 C 211,306 220,298 228,288 Z"
  fill="rgba(172,70,42,0.4)"/>

<!-- Large intestine -->
<path d="M 136,332 C 136,316 146,308 162,308 L 218,308 C 234,308 244,316 244,332 L 244,422 C 244,436 234,444 220,444 C 206,444 200,436 200,422 L 200,374 C 200,366 196,360 190,360 C 184,360 180,366 180,374 L 180,422 C 180,436 174,444 160,444 C 146,444 136,436 136,422 Z"
  fill="rgba(172,70,42,0.38)" stroke="rgba(195,98,60,0.22)" stroke-width="1.2"/>

<!-- Small intestine -->
<g fill="none" stroke="rgba(172,70,42,0.42)" stroke-width="5" stroke-linecap="round">
  <path d="M 176,352 C 176,342 182,336 190,336 C 198,336 204,342 204,352 C 204,362 198,368 190,368 C 182,368 176,374 176,384 C 176,394 182,400 190,400 C 198,400 204,394 204,384"/>
</g>

<!-- Appendix -->
<path d="M 244,418 L 250,432 C 252,438 250,444 246,444 C 242,444 240,438 240,432 L 244,418 Z"
  fill="rgba(172,70,42,0.45)"/>

<!-- Bone marrow hints in legs -->
<path d="M 244,528 L 248,618 C 248,622 246,624 244,624 L 238,624 C 236,624 234,622 234,618 L 238,528 Z"
  fill="rgba(200,155,65,0.3)"/>

<!-- ═══ VESSEL NETWORK ═══ -->
<g fill="none" stroke="rgba(201,168,76,0.3)" stroke-width="0.85" stroke-linecap="round">

<!-- HEAD — dense radiating network -->
<path d="M 190,12 C 185,5 175,2 168,6"/>
<path d="M 190,12 C 195,5 205,2 212,6"/>
<path d="M 178,14 C 165,15 152,22 145,35"/>
<path d="M 202,14 C 215,15 228,22 235,35"/>
<path d="M 165,18 C 150,22 138,32 132,48"/>
<path d="M 215,18 C 230,22 242,32 248,48"/>
<path d="M 150,30 C 138,38 128,52 124,68 C 122,80 125,92 132,100"/>
<path d="M 230,30 C 242,38 252,52 256,68 C 258,80 255,92 248,100"/>
<path d="M 140,50 C 130,62 124,78 124,94 C 124,106 128,116 136,122"/>
<path d="M 240,50 C 250,62 256,78 256,94 C 256,106 252,116 244,122"/>
<path d="M 135,72 C 128,84 126,98 128,112 C 130,122 136,130 144,134"/>
<path d="M 245,72 C 252,84 254,98 252,112 C 250,122 244,130 236,134"/>
<path d="M 148,96 C 142,108 140,122 142,134 C 143,141 148,147 155,148"/>
<path d="M 232,96 C 238,108 240,122 238,134 C 237,141 232,147 225,148"/>
<path d="M 162,110 C 158,122 157,134 159,144 C 160,148 164,150 168,150"/>
<path d="M 218,110 C 222,122 223,134 221,144 C 220,148 216,150 212,150"/>
<!-- forehead vessels -->
<path d="M 172,15 C 168,8 164,4 162,6"/>
<path d="M 208,15 C 212,8 216,4 218,6"/>
<path d="M 182,11 C 180,4 179,0 178,2"/>
<path d="M 198,11 C 200,4 201,0 202,2"/>

<!-- NECK vessels -->
<path d="M 168,118 C 165,126 164,136 165,148"/>
<path d="M 212,118 C 215,126 216,136 215,148"/>
<path d="M 176,116 C 174,125 173,135 174,148"/>
<path d="M 204,116 C 206,125 207,135 206,148"/>

<!-- LEFT ARM — branching network -->
<path d="M 96,168 C 82,172 68,185 58,202 C 48,218 42,238 40,258"/>
<path d="M 92,175 C 76,182 62,198 53,218 C 44,238 40,260 40,282"/>
<path d="M 88,185 C 70,195 56,215 48,238 C 40,260 37,284 38,308"/>
<path d="M 84,198 C 66,212 52,234 45,258 C 38,282 37,308 40,332"/>
<path d="M 78,215 C 62,232 50,255 44,280 C 38,305 38,330 42,354"/>
<path d="M 73,235 C 59,254 48,278 44,304 C 40,328 41,352 46,372"/>
<path d="M 68,258 C 56,278 47,302 45,328 C 43,350 46,370 52,382"/>
<path d="M 63,285 C 53,308 47,333 47,358 C 47,374 51,386 58,392"/>
<path d="M 58,315 C 50,338 46,362 48,382 C 49,392 54,400 62,404"/>
<path d="M 54,345 C 48,368 47,390 50,406 C 52,414 57,418 63,418"/>
<!-- hand vessels -->
<path d="M 46,380 C 40,390 36,400 38,410"/>
<path d="M 55,384 C 50,395 48,408 50,418"/>
<path d="M 64,386 C 62,398 62,410 64,420"/>
<path d="M 73,382 C 74,394 75,406 74,418"/>

<!-- RIGHT ARM — mirror -->
<path d="M 284,168 C 298,172 312,185 322,202 C 332,218 338,238 340,258"/>
<path d="M 288,175 C 304,182 318,198 327,218 C 336,238 340,260 340,282"/>
<path d="M 292,185 C 310,195 324,215 332,238 C 340,260 343,284 342,308"/>
<path d="M 296,198 C 314,212 328,234 335,258 C 342,282 343,308 340,332"/>
<path d="M 302,215 C 318,232 330,255 336,280 C 342,305 342,330 338,354"/>
<path d="M 307,235 C 321,254 332,278 336,304 C 340,328 339,352 334,372"/>
<path d="M 312,258 C 324,278 333,302 335,328 C 337,350 334,370 328,382"/>
<path d="M 317,285 C 327,308 333,333 333,358 C 333,374 329,386 322,392"/>
<path d="M 322,315 C 330,338 334,362 332,382 C 331,392 326,400 318,404"/>
<path d="M 326,345 C 332,368 333,390 330,406 C 328,414 323,418 317,418"/>
<!-- hand vessels right -->
<path d="M 334,380 C 340,390 344,400 342,410"/>
<path d="M 325,384 C 330,395 332,408 330,418"/>
<path d="M 316,386 C 318,398 318,410 316,420"/>
<path d="M 307,382 C 306,394 305,406 306,418"/>

<!-- CHEST vessels — branching from thoracic duct -->
<path d="M 190,168 C 175,172 158,178 142,180 C 126,182 112,180 100,174"/>
<path d="M 190,168 C 205,172 222,178 238,180 C 254,182 268,180 280,174"/>
<path d="M 190,185 C 172,190 154,196 136,198 C 120,200 106,198 95,192"/>
<path d="M 190,185 C 208,190 226,196 244,198 C 260,200 274,198 285,192"/>
<path d="M 190,205 C 170,210 150,216 130,218 C 112,219 98,216 86,210"/>
<path d="M 190,205 C 210,210 230,216 250,218 C 268,219 282,216 294,210"/>
<path d="M 190,225 C 168,230 146,235 125,237 C 107,238 93,234 82,227"/>
<path d="M 190,225 C 212,230 234,235 255,237 C 273,238 287,234 298,227"/>
<path d="M 190,248 C 165,252 140,256 116,257 C 98,257 85,253 76,246"/>
<path d="M 190,248 C 215,252 240,256 264,257 C 282,257 295,253 304,246"/>

<!-- ABDOMEN vessels -->
<path d="M 190,268 C 165,272 140,276 116,278 C 98,279 84,275 74,268"/>
<path d="M 190,268 C 215,272 240,276 264,278 C 282,279 296,275 306,268"/>
<path d="M 190,288 C 163,292 136,296 110,297 C 92,297 78,293 70,285"/>
<path d="M 190,288 C 217,292 244,296 270,297 C 288,297 302,293 310,285"/>
<path d="M 190,312 C 162,316 134,320 108,320 C 90,319 76,314 68,306"/>
<path d="M 190,312 C 218,316 246,320 272,320 C 290,319 304,314 312,306"/>
<path d="M 190,338 C 160,342 130,345 102,344 C 84,342 70,337 65,328"/>
<path d="M 190,338 C 220,342 250,345 278,344 C 296,342 310,337 315,328"/>
<path d="M 160,355 C 148,362 136,370 125,378 C 112,387 104,398 102,412"/>
<path d="M 220,355 C 232,362 244,370 255,378 C 268,387 276,398 278,412"/>
<path d="M 148,378 C 136,388 126,400 120,414 C 114,428 114,445 118,458"/>
<path d="M 232,378 C 244,388 254,400 260,414 C 266,428 266,445 262,458"/>
<path d="M 136,408 C 125,420 118,434 115,450 C 112,464 115,478 122,488"/>
<path d="M 244,408 C 255,420 262,434 265,450 C 268,464 265,478 258,488"/>

<!-- LEFT LEG — dense parallel + branching -->
<path d="M 135,490 C 128,515 122,542 120,570 C 118,596 120,622 125,648"/>
<path d="M 142,490 C 136,518 131,548 130,578 C 129,606 132,634 138,660"/>
<path d="M 150,490 C 145,520 142,552 142,584 C 142,614 146,644 153,672"/>
<path d="M 158,490 C 155,522 154,556 155,589 C 156,620 161,650 168,678"/>
<path d="M 166,490 C 165,524 165,558 167,592 C 169,624 175,654 183,680"/>
<path d="M 175,490 C 175,525 177,560 180,594 C 183,626 188,656 194,683"/>
<path d="M 122,638 C 118,665 116,692 117,718 C 118,738 124,756 133,768"/>
<path d="M 132,658 C 129,685 128,712 130,738 C 132,758 138,774 147,782"/>
<path d="M 143,672 C 141,700 141,728 144,754 C 147,774 154,790 163,800"/>
<path d="M 154,682 C 153,710 154,738 158,762 C 162,782 169,798 177,808"/>
<path d="M 164,688 C 164,716 166,744 171,768 C 175,788 181,804 186,812"/>
<!-- knee area vessels -->
<path d="M 120,630 C 116,638 114,648 116,656 C 118,664 124,670 132,672"/>
<path d="M 158,635 C 162,643 164,653 162,661 C 160,669 154,675 146,677"/>

<!-- RIGHT LEG -->
<path d="M 245,490 C 252,515 258,542 260,570 C 262,596 260,622 255,648"/>
<path d="M 238,490 C 244,518 249,548 250,578 C 251,606 248,634 242,660"/>
<path d="M 230,490 C 235,520 238,552 238,584 C 238,614 234,644 227,672"/>
<path d="M 222,490 C 225,522 226,556 225,589 C 224,620 219,650 212,678"/>
<path d="M 214,490 C 215,524 215,558 213,592 C 211,624 205,654 197,680"/>
<path d="M 205,490 C 205,525 203,560 200,594 C 197,626 192,656 186,683"/>
<path d="M 258,638 C 262,665 264,692 263,718 C 262,738 256,756 247,768"/>
<path d="M 248,658 C 251,685 252,712 250,738 C 248,758 242,774 233,782"/>
<path d="M 237,672 C 239,700 239,728 236,754 C 233,774 226,790 217,800"/>
<path d="M 226,682 C 227,710 226,738 222,762 C 218,782 211,798 203,808"/>
<path d="M 216,688 C 216,716 214,744 209,768 C 205,788 199,804 194,812"/>
<!-- knee right -->
<path d="M 260,630 C 264,638 266,648 264,656 C 262,664 256,670 248,672"/>
<path d="M 222,635 C 218,643 216,653 218,661 C 220,669 226,675 234,677"/>

</g>

<!-- ═══ THORACIC DUCT (central bright vessel) ═══ -->
<g filter="url(#ductglow)">
  <!-- Main thoracic duct -->
  <path d="M 190,490 C 190,465 190,440 190,415 C 190,388 190,362 190,336 C 190,308 190,282 190,256 C 190,228 190,202 190,178 C 190,162 190,152 190,142"
    fill="none" stroke="rgba(201,168,76,0.95)" stroke-width="3.5" stroke-linecap="round"/>
  <!-- Cisterna chyli widening at abdomen -->
  <path d="M 190,435 C 186,420 183,405 184,390 C 185,375 190,365 195,360 C 200,354 204,344 204,332 C 202,318 198,305 194,295"
    fill="none" stroke="rgba(201,168,76,0.55)" stroke-width="6" stroke-linecap="round"/>
  <!-- Right lymphatic duct -->
  <path d="M 190,148 C 202,145 218,140 235,136 C 248,133 260,134 268,140"
    fill="none" stroke="rgba(201,168,76,0.88)" stroke-width="2.8" stroke-linecap="round"/>
  <!-- Major duct branches -->
  <path d="M 190,235 C 178,238 164,240 150,240" fill="none" stroke="rgba(201,168,76,0.6)" stroke-width="1.8"/>
  <path d="M 190,235 C 202,238 216,240 230,240" fill="none" stroke="rgba(201,168,76,0.6)" stroke-width="1.8"/>
  <path d="M 190,258 C 175,262 158,264 142,264" fill="none" stroke="rgba(201,168,76,0.55)" stroke-width="1.5"/>
  <path d="M 190,258 C 205,262 222,264 238,264" fill="none" stroke="rgba(201,168,76,0.55)" stroke-width="1.5"/>
</g>

<!-- ═══ LYMPH NODES ═══ -->
<g filter="url(#glow)">

<!-- HEAD nodes (cream/white like Britannica) -->
<circle cx="190" cy="20" r="4.5" fill="rgba(235,228,210,0.95)" stroke="rgba(201,168,76,0.5)" stroke-width="0.8"/>
<circle cx="168" cy="50" r="4.0" fill="rgba(235,228,210,0.95)" stroke="rgba(201,168,76,0.5)" stroke-width="0.8"/>
<circle cx="212" cy="50" r="4.0" fill="rgba(235,228,210,0.95)" stroke="rgba(201,168,76,0.5)" stroke-width="0.8"/>
<circle cx="148" cy="78" r="4.0" fill="rgba(235,228,210,0.95)" stroke="rgba(201,168,76,0.5)" stroke-width="0.8"/>
<circle cx="232" cy="78" r="4.0" fill="rgba(235,228,210,0.95)" stroke="rgba(201,168,76,0.5)" stroke-width="0.8"/>
<circle cx="138" cy="100" r="3.5" fill="rgba(235,228,210,0.9)"/>
<circle cx="242" cy="100" r="3.5" fill="rgba(235,228,210,0.9)"/>

<!-- CERVICAL nodes (neck clusters) -->
<circle cx="162" cy="122" r="4.8" fill="rgba(235,228,210,0.95)" stroke="rgba(201,168,76,0.5)" stroke-width="0.8"/>
<circle cx="188" cy="118" r="4.0" fill="rgba(235,228,210,0.92)"/>
<circle cx="205" cy="120" r="3.5" fill="rgba(235,228,210,0.9)"/>
<circle cx="218" cy="122" r="4.8" fill="rgba(235,228,210,0.95)" stroke="rgba(201,168,76,0.5)" stroke-width="0.8"/>
<circle cx="168" cy="136" r="3.8" fill="rgba(235,228,210,0.9)"/>
<circle cx="212" cy="136" r="3.8" fill="rgba(235,228,210,0.9)"/>

<!-- AXILLARY nodes (armpits) -->
<circle cx="78" cy="188" r="6.0" fill="rgba(235,228,210,0.95)" stroke="rgba(201,168,76,0.5)" stroke-width="1"/>
<circle cx="70" cy="204" r="4.2" fill="rgba(235,228,210,0.9)"/>
<circle cx="84" cy="206" r="3.8" fill="rgba(235,228,210,0.88)"/>
<circle cx="302" cy="188" r="6.0" fill="rgba(235,228,210,0.95)" stroke="rgba(201,168,76,0.5)" stroke-width="1"/>
<circle cx="310" cy="204" r="4.2" fill="rgba(235,228,210,0.9)"/>
<circle cx="296" cy="206" r="3.8" fill="rgba(235,228,210,0.88)"/>

<!-- CHEST nodes -->
<circle cx="190" cy="175" r="4.5" fill="rgba(235,228,210,0.92)"/>
<circle cx="178" cy="188" r="3.5" fill="rgba(235,228,210,0.88)"/>
<circle cx="202" cy="188" r="3.5" fill="rgba(235,228,210,0.88)"/>

<!-- MESENTERIC nodes (abdomen cluster) -->
<circle cx="248" cy="278" r="5.5" fill="rgba(225,218,200,0.9)"/>
<circle cx="186" cy="310" r="4.2" fill="rgba(235,228,210,0.9)"/>
<circle cx="202" cy="338" r="4.5" fill="rgba(235,228,210,0.9)"/>
<circle cx="182" cy="355" r="3.5" fill="rgba(235,228,210,0.88)"/>
<circle cx="210" cy="358" r="3.5" fill="rgba(235,228,210,0.88)"/>
<circle cx="194" cy="372" r="3.8" fill="rgba(235,228,210,0.88)"/>
<circle cx="255" cy="400" r="3.5" fill="rgba(235,228,210,0.85)"/>
<circle cx="175" cy="392" r="3.2" fill="rgba(235,228,210,0.85)"/>
<circle cx="218" cy="395" r="3.2" fill="rgba(235,228,210,0.85)"/>

<!-- Scattered vessel nodes arm and torso -->
<circle cx="95" cy="248" r="3.2" fill="rgba(235,228,210,0.82)"/>
<circle cx="80" cy="280" r="3.0" fill="rgba(235,228,210,0.82)"/>
<circle cx="285" cy="248" r="3.2" fill="rgba(235,228,210,0.82)"/>
<circle cx="300" cy="280" r="3.0" fill="rgba(235,228,210,0.82)"/>
<circle cx="95" cy="355" r="3.0" fill="rgba(235,228,210,0.82)"/>
<circle cx="285" cy="355" r="3.0" fill="rgba(235,228,210,0.82)"/>

<!-- INGUINAL nodes (groin) -->
<circle cx="145" cy="482" r="6.0" fill="rgba(235,228,210,0.95)" stroke="rgba(201,168,76,0.5)" stroke-width="1"/>
<circle cx="134" cy="498" r="4.0" fill="rgba(235,228,210,0.9)"/>
<circle cx="156" cy="497" r="3.8" fill="rgba(235,228,210,0.88)"/>
<circle cx="235" cy="482" r="6.0" fill="rgba(235,228,210,0.95)" stroke="rgba(201,168,76,0.5)" stroke-width="1"/>
<circle cx="246" cy="498" r="4.0" fill="rgba(235,228,210,0.9)"/>
<circle cx="224" cy="497" r="3.8" fill="rgba(235,228,210,0.88)"/>

<!-- Leg vessel nodes -->
<circle cx="125" cy="545" r="3.0" fill="rgba(235,228,210,0.82)"/>
<circle cx="255" cy="545" r="3.0" fill="rgba(235,228,210,0.82)"/>

<!-- POPLITEAL nodes (behind knees) -->
<circle cx="140" cy="632" r="4.8" fill="rgba(235,228,210,0.92)" stroke="rgba(201,168,76,0.45)" stroke-width="0.8"/>
<circle cx="150" cy="645" r="3.2" fill="rgba(235,228,210,0.88)"/>
<circle cx="240" cy="632" r="4.8" fill="rgba(235,228,210,0.92)" stroke="rgba(201,168,76,0.45)" stroke-width="0.8"/>
<circle cx="230" cy="645" r="3.2" fill="rgba(235,228,210,0.88)"/>

<!-- Lower leg nodes -->
<circle cx="128" cy="695" r="2.8" fill="rgba(235,228,210,0.78)"/>
<circle cx="252" cy="695" r="2.8" fill="rgba(235,228,210,0.78)"/>
<circle cx="134" cy="745" r="2.5" fill="rgba(235,228,210,0.75)"/>
<circle cx="246" cy="745" r="2.5" fill="rgba(235,228,210,0.75)"/>

</g>

<!-- Vignette -->
<rect width="380" height="820" fill="url(#vignette)" pointer-events="none"/>

</svg>